<?xml version="1.0" encoding="utf-8"?>
<!-- Generator: Adobe Illustrator 24.0.0, SVG Export Plug-In . SVG Version: 6.00 Build 0)  -->
<svg version="1.1" id="Capa_1" xmlns="http://www.w3.org/2000/svg" xmlns:xlink="http://www.w3.org/1999/xlink" x="0px" y="0px"
	 viewBox="0 0 205.57 89.68" style="enable-background:new 0 0 205.57 89.68;" xml:space="preserve">
<style type="text/css">
	.st0{fill-rule:evenodd;clip-rule:evenodd;}
</style>
<g>
	<path fill="#fff" d="M102.37,69.88c0-13.86-0.05-27.71,0.07-41.56c0.01-1.51,0.68-3.3,1.64-4.49c10.93-13.48,24.72-22.07,42.23-23.82
		c1.66-0.17,4.05,0.83,5.13,2.11c9.78,11.55,19.34,23.27,29.5,35.6c-9.9-1.09-18.83,0.07-27.51,3.17
		c-12.21,4.37-23.22,10.97-33.9,18.16c-5.32,3.58-10.48,7.4-15.71,11.11C103.35,70.08,102.86,69.98,102.37,69.88z"/>
	<path fill="#fff"  d="M100.37,68.72c-0.75-0.15-1.21-0.1-1.44-0.3c-9.56-8.57-21.48-11.59-33.61-13.22c-14.44-1.94-29.03-2.87-43.56-4.09
		c-2.45-0.21-4.96,0.33-8.24,0.59c1.18-1.58,1.91-2.8,2.87-3.79c9.35-9.72,18.87-19.29,28.06-29.16c3.12-3.35,6.76-4.97,11-4.92
		c13.85,0.15,27.34,2.04,39.73,8.98c3.21,1.8,4.57,3.87,4.55,7.73c-0.07,11.08,0.39,22.17,0.63,33.26
		C100.4,65.37,100.37,66.97,100.37,68.72z"/>
	<path fill="#fff" d="M205.57,89.68c-10.4-0.91-19.67-1.72-28.94-2.54c-15.45-1.37-30.88-2.99-46.34-4.03c-7.41-0.5-14.77,0.23-21.85,3.34
		c-2.64,1.16-6.5,1.39-9.15,0.36c-6.8-2.66-13.58-2.06-20.49-1.56c-10.94,0.79-21.88,1.47-32.83,2.11
		c-13.73,0.8-27.46,1.51-41.2,2.24C3.57,89.66,2.36,89.6,0,89.6c3.19-4.56,5.81-8.29,7.93-11.32c2.08,0.88,3.54,2.06,4.97,2.01
		c20.81-0.67,41.61-1.58,62.42-2.24c6.37-0.2,12.78-0.01,19.14,0.4c3.55,0.23,7.05,1.27,10.58,1.9c0.48,0.09,1.06,0.04,1.49-0.16
		c12.24-5.72,24.79-1.03,37.19-1.11c2.38-0.01,4.76,0.37,7.15,0.48c12.73,0.6,25.46,1.06,38.18,1.82c5.86,0.35,5.84,0.61,7.17-5.04
		c0.14-0.58,0.27-1.15,0.58-2.48C199.82,79.29,202.47,84.09,205.57,89.68z"/>
	<path fill="#fff" d="M113.63,68.4c1.76-1.6,3.39-3.36,5.3-4.77c14.07-10.38,29.39-18.09,46.83-20.79c4.31-0.67,8.83-0.6,13.2-0.23
		c4.13,0.35,7.31,2.55,8.42,8.05c-13.35-2.89-25.78-0.36-37.99,3.74c0.04,0.35,0.08,0.71,0.13,1.06c5.04-0.68,10.06-1.6,15.13-1.97
		c5.61-0.41,11.27-0.61,16.89-0.35c3.94,0.18,5.64,1.79,7.57,5.67c-4.08,0.17-7.89,0.34-11.7,0.5c-12.58,0.53-25.24,0.43-37.73,1.83
		c-7.35,0.83-14.45,4.02-21.64,6.21c-1.4,0.43-2.69,1.18-4.04,1.78C113.87,68.88,113.75,68.64,113.63,68.4z"/>
	<path fill="#fff" d="M92.58,74c-26.18,0.84-52.36,1.67-79.23,2.53c0-2.71-0.13-6.06,0.1-9.39c0.05-0.7,1.35-1.67,2.22-1.87
		c2.07-0.48,4.23-0.7,6.36-0.79c21.01-0.82,41.86,0.07,62.23,5.96c2.87,0.83,5.66,1.97,8.48,2.96C92.7,73.6,92.64,73.8,92.58,74z"/>
	<path fill="#fff" d="M190.59,74.69c-24.69-0.41-48.7-0.81-72.63-1.2c1.47-0.64,3.3-1.85,5.29-2.25c11.69-2.38,23.34-5.08,35.15-6.65
		c8.68-1.16,17.56-1,26.35-0.95c5.85,0.03,5.85,0.42,5.85,6.37C190.59,71.61,190.59,73.22,190.59,74.69z"/>
	<path fill="#fff" d="M13.49,59.61c13.4-7.14,71.39,1.15,79.64,11.88c-12.89-6.2-25.94-8.78-39.27-9.76C40.55,60.75,27.2,60.31,13.49,59.61z"/>
</g>
</svg>
